<?xml version="1.0" standalone="no"?><!DOCTYPE svg PUBLIC "-//W3C//DTD SVG 1.1//EN" "http://www.w3.org/Graphics/SVG/1.1/DTD/svg11.dtd"><svg t="1647660600457" class="icon" viewBox="0 0 1024 1024" version="1.1" xmlns="http://www.w3.org/2000/svg" p-id="2089" xmlns:xlink="http://www.w3.org/1999/xlink" width="200" height="200"><defs><style type="text/css"></style></defs><path d="M521.6 966.4c-246.4 0-448-201.6-448-448s201.6-448 448-448 448 201.6 448 448-201.6 448-448 448z m0-832c-211.2 0-384 172.8-384 384s172.8 384 384 384 384-172.8 384-384-172.8-384-384-384z" fill="#4D5DA8" p-id="2090"></path><path d="M521.6 780.8c-16 0-32-12.8-32-32v-320c0-16 12.8-32 32-32s32 12.8 32 32v320c-3.2 19.2-16 32-32 32z" fill="#4D5DA8" p-id="2091"></path><path d="M521.6 316.8m-32 0a32 32 0 1 0 64 0 32 32 0 1 0-64 0Z" fill="#4D5DA8" p-id="2092"></path></svg>