<?xml version="1.0" standalone="no"?><!DOCTYPE svg PUBLIC "-//W3C//DTD SVG 1.1//EN" "http://www.w3.org/Graphics/SVG/1.1/DTD/svg11.dtd"><svg t="1647498711668" class="icon" viewBox="0 0 1024 1024" version="1.1" xmlns="http://www.w3.org/2000/svg" p-id="2737" xmlns:xlink="http://www.w3.org/1999/xlink" width="200" height="200"><defs><style type="text/css"></style></defs><path d="M269.8 627.6s85.5 96.9 213.7 82.4 214.8-69.8 214.8-69.8L545.1 859.3l-63.5 74-211.8-305.7z" fill="#96D34F" p-id="2738"></path><path d="M509 64.6c-188.9 0-342.5 153.7-342.5 342.5 0 182.8 308.6 528.5 321.8 543.1 4.8 5.3 11.6 8.4 18.8 8.4h0.1c7.2 0 14-3 18.8-8.3 13.3-14.6 325.6-360.4 325.6-543.2 0-188.9-153.7-342.5-342.6-342.5z m0 50.8c160.9 0 291.7 130.9 291.7 291.7 0 44.8-24.7 105.2-60.8 169.4-2.4 1.4-4.6 3.2-6.6 5.4-0.9 1-90.6 102.7-223.9 102.7h-0.4c-134.1-0.2-224.4-101.7-225.3-102.7-1.9-2.2-4-3.9-6.4-5.3-35.7-64.2-60.1-124.6-60.1-169.5 0.1-160.9 131-291.7 291.8-291.7z m-1.7 779.5c-41-47.4-100.2-120.6-154.4-198.7 41.9 21.6 94.8 39.1 156.1 39.1h0.5c60 0 111.9-17 153.4-38.2-54.8 77.9-114.3 150.7-155.6 197.8z" fill="#4D5DA8" p-id="2739"></path><path d="M434.3 577.6c14 0 25.4-11.4 25.4-25.4V428.3c30.8-0.4 92-1.1 118.3-1.1 52 0 91.1-36.3 91.1-84.4 0-52.1-36.1-89.9-85.8-89.9h-149c-14 0-25.4 11.4-25.4 25.4v273.9c0 14 11.4 25.4 25.4 25.4z m25.4-273.9h123.6c25.8 0 35 20.2 35 39.1 0 23.1-20.9 33.6-40.3 33.6-26.4 0-87.2 0.7-118.3 1.1v-73.8z" fill="#4D5DA8" p-id="2740"></path></svg>