<?xml version="1.0" standalone="no"?><!DOCTYPE svg PUBLIC "-//W3C//DTD SVG 1.1//EN" "http://www.w3.org/Graphics/SVG/1.1/DTD/svg11.dtd"><svg t="1647498704012" class="icon" viewBox="0 0 1024 1024" version="1.1" xmlns="http://www.w3.org/2000/svg" p-id="2432" xmlns:xlink="http://www.w3.org/1999/xlink" width="200" height="200"><defs><style type="text/css"></style></defs><path d="M248.5 775h28.8c12.4 0 22.4-10 22.4-22.4s-10-22.4-22.4-22.4h-28.8c-21.6 0-39.1-17.6-39.1-39.1V264.7c0-21.6 17.6-39.1 39.1-39.1h33.3c12.4 0 22.4-10 22.4-22.4s-10-22.4-22.4-22.4h-33.3c-46.3 0-83.9 37.7-83.9 83.9v426.4c-0.1 46.2 37.6 83.9 83.9 83.9zM544.8 225.5h24.8c21.6 0 39.1 17.6 39.1 39.1V334c0 12.4 10 22.4 22.4 22.4s22.4-10 22.4-22.4v-69.3c0-46.3-37.7-83.9-83.9-83.9h-24.8c-12.4 0-22.4 10-22.4 22.4s10 22.3 22.4 22.3z" fill="#4D5DA8" p-id="2433"></path><path d="M323.9 299.4H512c12.4 0 22.4-10 22.4-22.4 0-12.4-10-22.4-22.4-22.4h-37.4v-62.3c0-16.9-13.8-30.8-30.8-30.8H392c-16.9 0-30.8 13.8-30.8 30.8v62.3h-37.4c-12.4 0-22.4 10-22.4 22.4 0.1 12.4 10.1 22.4 22.5 22.4z m94-111.2c15.8 0 28.6 12.8 28.6 28.6s-12.8 28.6-28.6 28.6-28.6-12.8-28.6-28.6 12.9-28.6 28.6-28.6zM271.3 347.7c-12.4 0-22.4 10-22.4 22.4s10 22.4 22.4 22.4h103.8c12.4 0 22.4-10 22.4-22.4s-10-22.4-22.4-22.4H271.3zM793.3 522.6c-1.5-78.9-66-142.7-145.3-142.7H520.8c-78.7 0-142.9 62.9-145.2 141.1-44.2 8.5-77.7 47.5-77.7 94.1v49c0 52.9 43 95.9 95.9 95.9h2.1v29.9c0 12.4 10 22.4 22.4 22.4s22.4-10 22.4-22.4V760h285v29.9c0 12.4 10 22.4 22.4 22.4s22.4-10 22.4-22.4v-30c51.9-1.1 93.8-43.6 93.8-95.8v-49c0-44.3-30.2-81.5-71-92.5z m-272.5-98h127.1c53.4 0 97.2 41.9 100.4 94.5H420.5c3.2-52.6 46.9-94.5 100.3-94.5zM819.5 664c0 28.2-22.9 51.1-51.1 51.1H393.8c-28.2 0-51.1-22.9-51.1-51.1v-49c0-28.2 22.9-51.1 51.1-51.1h374.5c28.2 0 51.1 22.9 51.1 51.1v49z" fill="#4D5DA8" p-id="2434"></path><path d="M425 639.5m-39.4 0a39.4 39.4 0 1 0 78.8 0 39.4 39.4 0 1 0-78.8 0Z" fill="#4D5DA8" p-id="2435"></path><path d="M739.5 639.5m-39.4 0a39.4 39.4 0 1 0 78.8 0 39.4 39.4 0 1 0-78.8 0Z" fill="#4D5DA8" p-id="2436"></path><path d="M826.1 815.1H198.9c-12.3 0-22.4 10.1-22.4 22.4 0 12.3 10.1 22.4 22.4 22.4h627.2c12.3 0 22.4-10.1 22.4-22.4 0-12.4-10-22.4-22.4-22.4zM933.7 815.1h-44.8c-12.3 0-22.4 10.1-22.4 22.4 0 12.3 10.1 22.4 22.4 22.4h44.8c12.3 0 22.4-10.1 22.4-22.4 0-12.4-10.1-22.4-22.4-22.4zM136.2 815.1H91.4c-12.4 0-22.4 10-22.4 22.4 0 12.3 10.1 22.4 22.4 22.4h44.8c12.3 0 22.4-10.1 22.4-22.4 0-12.4-10.1-22.4-22.4-22.4z" fill="#4D5DA8" p-id="2437"></path></svg>